<svg width="40" height="33" viewBox="0 0 40 33" xmlns="http://www.w3.org/2000/svg"><title>&quot;</title><path d="M20.845 21.765c0-2.499.505-4.973 1.514-7.423 1.008-2.45 2.234-4.493 3.675-6.126a42.684 42.684 0 0 1 4.468-4.396c1.538-1.298 2.859-2.26 3.964-2.883C35.571.312 36.268 0 36.556 0c1.25 0 2.21.865 2.883 2.594-2.595 1.538-4.733 3.34-6.414 5.406-1.682 2.066-2.739 3.7-3.171 4.9-.433 1.201-.649 2.138-.649 2.81 0 1.25.985 2.956 2.955 5.118 1.97 2.162 2.955 3.915 2.955 5.26 0 1.73-.937 3.196-2.811 4.397-1.874 1.201-4.012 1.802-6.414 1.802-1.057 0-2.066-.145-3.027-.433-1.345-1.922-2.018-5.285-2.018-10.09zM0 21.765c0-2.499.504-4.973 1.513-7.423 1.01-2.45 2.235-4.493 3.676-6.126a38.997 38.997 0 0 1 4.54-4.396c1.586-1.298 2.931-2.26 4.036-2.883C14.87.312 15.567 0 15.855 0c1.153 0 2.066.865 2.739 2.594-2.595 1.538-4.709 3.34-6.342 5.406-1.634 2.066-2.667 3.7-3.1 4.9-.432 1.201-.648 2.138-.648 2.81 0 1.25.985 2.956 2.955 5.118 1.97 2.162 2.955 3.915 2.955 5.26 0 1.73-.961 3.196-2.883 4.397-1.922 1.201-4.084 1.802-6.486 1.802-.865 0-1.826-.145-2.883-.433C.721 29.74 0 26.377 0 21.764z" fill="#1BBD99" fill-rule="evenodd"/></svg>